<svg width="198" height="192" viewBox="0 0 198 192" fill="none" xmlns="http://www.w3.org/2000/svg">
<rect x="31" y="31" width="135" height="130" rx="20" fill="#040404"/>
<path d="M108.816 94.0163H75.5915C70.8589 94.0163 67.0224 97.8278 67.0224 102.53C67.0224 107.231 70.8589 111.043 75.5915 111.043H108.816V121H75.5915L75.4713 121C65.2588 120.935 57 112.691 57 102.53C57 92.3685 65.2588 84.1238 75.4713 84.0596L75.5915 84.0592L108.816 84.0592V94.0163Z" fill="white"/>
<path d="M88.3836 80.9571H121.48C126.194 80.9571 130.016 84.7686 130.016 89.4704C130.016 94.1722 126.194 97.9837 121.48 97.9837H88.3836V107.941H121.48L121.6 107.94C131.773 107.876 140 99.6315 140 89.4704C140 79.3093 131.773 71.0646 121.6 71.0004L121.48 71L88.3836 71V80.9571Z" fill="white"/>
</svg>
